<?xml version="1.0" encoding="utf-8"?>
<!-- Generator: Adobe Illustrator 24.3.0, SVG Export Plug-In . SVG Version: 6.00 Build 0)  -->
<svg version="1.1" id="Layer_1" xmlns="http://www.w3.org/2000/svg" xmlns:xlink="http://www.w3.org/1999/xlink" x="0px" y="0px"
	 viewBox="0 0 489 489" style="enable-background:new 0 0 489 489;" xml:space="preserve">
<style type="text/css">
	.st0{fill:#FFFFFF;}
</style>
<path class="st0" d="M259.91,199.5c5.13-5.42,9.57-10.96,14.84-15.52c13.29-11.49,26.11-11.12,39.42,0.62
	c9.32,8.22,16.08,18.41,22.09,29.15c12.75,22.8,22.12,47.07,30.67,71.64c8.19,23.54,15.84,47.27,23.81,70.89
	c0.81,2.4,0.66,4.09-1.05,6.16c-28.72,34.61-65.18,56.29-109.42,63.92c-33.73,5.82-66.79,2.01-98.63-10.95
	c-1.12-0.45-2.14-1.15-3.46-1.87c3.94-11.3,8.01-22.45,11.73-33.72c7.31-22.07,14.45-44.19,21.54-66.33
	c0.36-1.14-0.04-3.2-0.87-3.93c-17.72-15.62-30.88-34.71-42.26-55.17c-0.37-0.66-0.84-1.28-1.32-1.87
	c-0.17-0.22-0.49-0.32-1.75-1.09c-13.85,41.66-27.62,83.05-41.46,124.67c-75.72-71.57-69.74-200.32,11.24-264.39
	c2.17,6.33,4.17,12.53,6.41,18.64c10,27.27,19.32,54.83,30.33,81.69c11.29,27.57,25.43,53.77,46.84,75.13
	c18.86,18.81,41.39,29.85,68.47,29.62c21.61-0.19,40.72-7.66,57.22-21.62c1.04-0.88,2.08-3.05,1.7-4.12
	c-7.4-21.05-15.44-41.84-25.76-62.79c-2.01,2.56-3.53,4.54-5.1,6.47c-5.44,6.72-11.43,12.77-19.58,16.27
	c-8.18,3.51-16.32,2.79-23.1-2.39c-6.72-5.15-13.09-11.16-18.25-17.85c-13-16.88-21.75-36.25-29.09-56.06
	c-11.43-30.82-21.87-62.01-32.72-93.04c-0.24-0.69-0.28-1.45-0.57-2.98c57.69-17.97,111.82-11.24,161.44,23.23
	c57.42,39.88,82.4,105.67,75.38,166.17c-3.14-8.45-5.88-16.04-8.76-23.57c-10.9-28.5-23.05-56.4-40.55-81.63
	c-14.74-21.25-32.8-38.71-58.02-46.59c-31.47-9.83-60.13-3.4-85.65,17.26c-1.02,0.83-1.96,3.12-1.54,4.17
	c8.15,20.28,16.52,40.48,24.85,60.68C259.17,198.78,259.56,199.08,259.91,199.5z"/>
</svg>
