<?xml version="1.0" encoding="utf-8"?>
<!-- Generator: Adobe Illustrator 24.3.0, SVG Export Plug-In . SVG Version: 6.00 Build 0)  -->
<svg version="1.1" id="Layer_1" xmlns="http://www.w3.org/2000/svg" xmlns:xlink="http://www.w3.org/1999/xlink" x="0px" y="0px"
	 viewBox="0 0 489 489" style="enable-background:new 0 0 489 489;" xml:space="preserve">
<style type="text/css">
	.st0{fill:#FFFFFF;}
</style>
<g id="O4a7oK.tif">
	<g>
		<path class="st0" d="M112.92,263.2c-28.22-8.43-41.1-31.71-37.26-60.92c3.42-25.99,15.88-47.61,28.46-69.3
			c17.67-30.47,43.92-49.83,78.78-56.98c9.01-1.85,17.93-5.72,26.92-5.83c20.33-0.24,41.02-0.7,60.92,2.69
			c18.23,3.11,36.13,10.01,53.17,17.53c8.45,3.73,14.74,12.48,21.75,19.22c1.57,1.51,1.63,4.55,3.16,6.17
			c19.91,21.13,19.97,46.8,16.13,72.95c-2.26,15.37-23.81,30.75-42.37,31.73c-3.09,0.16-6.2,0.02-9.8,0.02
			c-8.13,27.57-26.61,40.21-57.71,36.38c10.31,14.99,19.03,28.09,28.18,40.87c16.12,22.52,32.39,44.95,48.93,67.17
			c2.5,3.36,7.44,8.19,10.17,7.57c15.28-3.45,30.3-8.17,45.26-12.92c3.58-1.14,6.44-4.36,9.9-6.11c14.65-7.39,19.56-5.82,29.25,9.87
			c-25.23,21.6-50.61,43.33-77.87,66.67c-39.08-48.58-67.73-102.84-106.62-153.87c-0.62,27.02-1.41,51.36-1.67,75.7
			c-0.18,17.07-2.16,19.25-19.29,15.09c-14.74-3.58-29.6-7.35-43.64-12.96c-9.67-3.86-16.35-0.98-21.42,5.66
			c-6.52,8.54-12.47,17.86-16.77,27.68c-6.33,14.46-9.75,16.75-25.93,11.01c1.28-6.13,2.41-12.53,3.98-18.81
			c4.34-17.38,8.96-34.69,13.28-52.07c2.73-10.98,9.26-10.09,17.84-6.99c21.21,7.67,42.65,14.72,64.03,21.94
			c1.8,0.61,3.78,0.65,7.23,1.21c1.09-21.38,2.15-42.23,3.22-63.24c-10.12,3.7-19.75,7.1-29.29,10.73
			c-19.99,7.6-40.05,5.92-59.75-0.46C121.22,286.46,113.08,277.49,112.92,263.2z"/>
	</g>
</g>
</svg>
