<?xml version="1.0" encoding="utf-8"?>
<!-- Generator: Adobe Illustrator 24.3.0, SVG Export Plug-In . SVG Version: 6.00 Build 0)  -->
<svg version="1.1" id="Layer_1" xmlns="http://www.w3.org/2000/svg" xmlns:xlink="http://www.w3.org/1999/xlink" x="0px" y="0px"
	 viewBox="0 0 489 489" style="enable-background:new 0 0 489 489;" xml:space="preserve">
<style type="text/css">
	.st0{fill:#FFFFFF;}
</style>
<g id="TMRCHe.tif">
	<g>
		<path class="st0" d="M41.83,77.63c0-13.54,0-27.08,0-40.63c125.21,0,250.41,0,375.68,0c0,138.92,0,277.84,0,417
			c-79.75,0-159.57,0-239.39,0c0.66-0.26,1.29-0.64,1.98-0.76c18.45-3.21,30.37-20.76,26.32-39.04c-0.5-2.27-0.06-3.66,1.51-5.21
			c12.49-12.41,24.96-24.83,37.32-37.37c1.91-1.93,3.15-1.97,5.44-0.56c27.86,17.2,57.83,22.3,89.51,13.9
			c57.33-15.19,90.2-75.7,70.79-131.26c-13.4-38.36-41.39-60.85-81.03-68.98c-2.72-0.56-3.99-1.29-3.94-4.51
			c0.22-14.58,0.14-29.17,0.05-43.75c-0.02-2.27,0.69-3.47,2.7-4.62c12.94-7.45,19.88-18.57,19.88-33.69
			c0-23.58-21.89-41.6-44.96-37.06c-16.42,3.23-28.1,15.49-30.66,33.18c-1.99,13.75,4.62,29.37,19.55,37.5
			c2.03,1.1,2.74,2.31,2.73,4.59c-0.1,14.79-0.05,29.59-0.06,44.38c0,1.02-0.09,2.03-0.14,3.05c-0.75,0.19-1.24,0.36-1.74,0.44
			c-10.72,1.8-21.03,4.9-30.86,9.6c-0.89,0.42-2.64-0.05-3.54-0.71c-6.05-4.42-11.98-9.02-17.96-13.55
			c-37.83-28.71-75.65-57.43-113.52-86.08c-1.91-1.45-2.42-2.73-2.08-5.14c0.6-4.28,1.09-8.7,0.69-12.97
			c-1.94-20.51-19.23-36.65-39.8-37.52c-20.6-0.87-38.8,13.24-43.1,33.43C42.71,73.39,42.28,75.51,41.83,77.63z"/>
		<path class="st0" d="M410.98,253.7c-13.4-38.36-41.39-60.85-81.03-68.98c-2.72-0.56-3.99-1.29-3.94-4.51
			c0.22-14.58,0.14-29.17,0.05-43.75c-0.02-2.27,0.69-3.47,2.7-4.62c12.94-7.45,19.88-18.57,19.88-33.69
			c0-23.58-21.89-41.6-44.96-37.06c-16.42,3.23-28.1,15.49-30.66,33.18c-1.99,13.75,4.62,29.37,19.55,37.5
			c2.03,1.1,2.74,2.31,2.73,4.59c-0.1,14.79-0.05,29.59-0.06,44.38c0,1.02-0.09,2.03-0.14,3.05c-0.75,0.19-1.24,0.36-1.74,0.44
			c-10.72,1.8-21.03,4.9-30.86,9.6c-0.89,0.42-2.64-0.05-3.54-0.71c-6.05-4.42-11.98-9.02-17.96-13.55
			c-37.83-28.71-75.65-57.43-113.52-86.08c-1.91-1.45-2.42-2.73-2.08-5.14c0.6-4.28,1.09-8.7,0.69-12.97
			c-1.94-20.51-19.23-36.65-39.8-37.52c-20.6-0.87-38.8,13.24-43.1,33.43c-0.45,2.12-0.89,4.24-1.33,6.35c0,1.67,0,3.33,0,5
			c0.58,2.72,1.05,5.48,1.76,8.16c6.93,26.1,35.71,38.96,59.81,26.66c2.04-1.04,3.44-1.16,5.24,0.39c2.52,2.17,5.27,4.08,7.97,6.03
			c38.95,28.08,77.9,56.15,116.85,84.23c1.15,0.83,2.25,1.74,4.38,3.39c-1.36,0.79-2.43,1.15-3.15,1.87
			c-17.2,17.08-27.36,37.69-29.32,61.83c-2.15,26.47,3.39,51.15,19.92,72.63c1.33,1.73,1.11,2.71-0.34,4.15
			c-12.35,12.26-24.65,24.57-36.91,36.91c-1.35,1.36-2.55,1.38-4.41,1.12c-4.37-0.63-8.91-1.33-13.24-0.83
			c-15.87,1.85-27.54,14.51-28.2,30.85c-0.68,16.96,11.13,29.54,24.64,32.71c1.49,0.35,2.94,0.85,4.4,1.27c2.29,0,4.58,0,6.88,0
			c0.66-0.26,1.29-0.64,1.98-0.76c18.45-3.21,30.37-20.76,26.32-39.04c-0.5-2.27-0.06-3.66,1.51-5.21
			c12.49-12.41,24.96-24.83,37.32-37.37c1.91-1.93,3.15-1.97,5.44-0.56c27.86,17.2,57.83,22.3,89.51,13.9
			C397.52,369.77,430.39,309.26,410.98,253.7z M310.64,343.45c-29.58-0.02-57.03-26.63-57.01-55.26
			c0.02-31.85,26.02-58.83,56.68-58.83c31.58,0,56.73,25.5,56.74,57.54C367.07,315.62,339.29,343.47,310.64,343.45z"/>
	</g>
</g>
</svg>
