<?xml version="1.0" encoding="utf-8"?>
<!-- Generator: Adobe Illustrator 24.3.0, SVG Export Plug-In . SVG Version: 6.00 Build 0)  -->
<svg version="1.1" id="Layer_1" xmlns="http://www.w3.org/2000/svg" xmlns:xlink="http://www.w3.org/1999/xlink" x="0px" y="0px"
	 viewBox="0 0 489 489" style="enable-background:new 0 0 489 489;" xml:space="preserve">
<style type="text/css">
	.st0{fill:#FFFFFF;}
</style>
<g id="J0i4cs_1_">
	<g>
		<path class="st0" d="M103.27,386.56"/>
		<path class="st0" d="M244.01,77.16C147.51,76.98,70.18,154.38,70,251.33c-0.18,94.33,77.94,171.69,173.49,171.82
			c95.69,0.13,174.17-76.75,174.51-170.96C418.35,155.1,341.05,77.34,244.01,77.16z M163.63,206.66
			c-4.68-5.36-9.09-10.41-14.02-16.07c4.71-5.93,9.33-11.75,14.39-18.12c4.7,5.63,8.93,10.69,13.39,16.03
			C172.89,194.44,168.62,200.08,163.63,206.66z M280.7,204.37c-7.81-8.69-15.33-16.72-22.44-25.11c-4.07-4.81-7.04-4.66-10.9,0.21
			c-9.27,11.71-18.85,23.19-28.32,34.74c-1.42,1.73-2.97,3.37-4.94,5.6c-8.83-10.57-17.32-20.74-26.31-31.5
			c6.27-8.29,12.07-16.28,18.29-23.93c1.33-1.63,4.12-2.66,6.34-2.88c4.57-0.44,9.22-0.13,13.83-0.14
			c11.32-0.03,17.82-4,19.94-12.17c2.24-8.65-1.71-15.55-12.75-21.13c2.89-3.82,5.69-7.51,9.09-12
			c19.04,22.92,37.62,45.28,56.54,68.05C292.96,190.85,286.99,197.43,280.7,204.37z M177.36,148.37c1.4-1.23,2.67-2.83,4.14-3.89
			c0.49-0.36,1-0.65,1.55-0.86c2.17-0.82,4.91-0.18,7.84-0.18c0-3.11-0.08-5.16,0.01-7.2c0.3-6.6,4.66-11.65,11.16-13.05
			c5.92-1.27,12.77,1.53,14.74,7.42c1.8,5.37,4.89,6.36,9.67,5.76c1.35-0.17,2.78-0.09,4.13,0.11c5.03,0.75,7.95,3.6,7.78,8.78
			c-0.16,4.84-3.03,7.82-7.83,7.89c-15.88,0.21-31.76,0.28-47.64-0.07c-0.94-0.02-1.87-0.79-2.79-1.75
			C179.2,150.35,178.29,149.19,177.36,148.37L177.36,148.37L177.36,148.37z M319.7,235.63c-1.88-0.04-3.69-3.02-5.54-4.64
			c1.84-1.66,3.42-3.99,5.58-4.81c2.19-0.83,4.96-0.18,7.88-0.18c0.33-13.52,3.18-18.53,11.01-20.25
			c7.35-1.61,12.27,1.96,17.88,13.29c3.43,0,7.12-0.27,10.76,0.07c5.09,0.47,8.04,3.58,7.94,8.65c-0.1,4.76-3.04,7.87-7.84,7.94
			C351.48,235.92,335.58,235.98,319.7,235.63z M359.95,244.49c3.6-0.22,5.8-0.32,8-0.49c8.87-0.69,15.56-7.63,15.65-16.22
			c0.09-8.59-6.32-16.27-15.04-16.85c-4.51-0.3-7.31-1.55-10.12-5.27c-7.64-10.13-19.07-10.95-32.85-2.56
			c-16.32-19.65-32.46-39.09-48.61-58.52c-9.7-11.67-19.37-23.37-29.14-34.99c-4.8-5.71-6.49-5.6-11.09,0.39
			c-3.91,5.1-7.78,10.23-12.67,16.67c-1.49-2.13-2.41-4.04-3.83-5.42c-11.95-11.59-31-7.19-36.43,8.53
			c-1.21,3.51-2.78,5.44-6.51,6.78c-6.01,2.15-8.95,7.14-8.15,13.63c0.77,6.22,5.72,10.69,12.14,11.25
			c2.52,0.22,5.07,0.09,7.61,0.11c2.27,0.01,4.53,0,8.76,0c-5.48,7.19-10.05,13.19-15.19,19.93c-4.46-5.26-8.44-9.9-12.37-14.58
			c-5.59-6.66-6.94-6.68-12.5,0.32c-24.59,30.98-49.14,61.99-73.72,92.97c-1.24,1.56-2.59,3.04-4.1,4.81
			c-7.29-45.31,13.1-115.39,76.43-154.55c61.8-38.21,140.41-32.26,195.37,14.55c56.73,48.32,67.63,121.49,50.88,170.72
			C388.36,278.71,374.55,262.08,359.95,244.49z"/>
	</g>
</g>
</svg>
